<mxfile host="Electron" modified="2025-01-08T14:36:09.612Z" agent="Mozilla/5.0 (Windows NT 10.0; Win64; x64) AppleWebKit/537.36 (KHTML, like Gecko) draw.io/24.5.1 Chrome/124.0.6367.207 Electron/30.0.6 Safari/537.36" etag="oiTA52GvxODCoWdQg2nW" version="24.5.1" type="device">
  <diagram id="i4767nxblYqIjrdrmlL_" name="Page-1">
    <mxGraphModel dx="1247" dy="727" grid="1" gridSize="10" guides="1" tooltips="1" connect="1" arrows="1" fold="1" page="1" pageScale="1" pageWidth="850" pageHeight="1100" math="0" shadow="0">
      <root>
        <mxCell id="0" />
        <mxCell id="1" parent="0" />
        <mxCell id="35" value="" style="rounded=0;whiteSpace=wrap;html=1;dashed=1;dashPattern=8 8;" parent="1" vertex="1">
          <mxGeometry x="710" y="50" width="500" height="310" as="geometry" />
        </mxCell>
        <mxCell id="F8SU_T_gVYSJqYBRNQ0F-35" value="&lt;font style=&quot;font-size: 15px;&quot;&gt;Edge Computing Platform&lt;/font&gt;" style="text;html=1;align=center;verticalAlign=middle;whiteSpace=wrap;rounded=0;" parent="1" vertex="1">
          <mxGeometry x="882.5" y="60" width="135" height="30" as="geometry" />
        </mxCell>
        <mxCell id="F8SU_T_gVYSJqYBRNQ0F-43" value="" style="whiteSpace=wrap;html=1;aspect=fixed;" parent="1" vertex="1">
          <mxGeometry x="390.5" width="80" height="80" as="geometry" />
        </mxCell>
        <mxCell id="F8SU_T_gVYSJqYBRNQ0F-44" value="" style="sketch=0;outlineConnect=0;fontColor=#232F3E;gradientColor=none;fillColor=#7AA116;strokeColor=none;dashed=0;verticalLabelPosition=bottom;verticalAlign=top;align=center;html=1;fontSize=12;fontStyle=0;aspect=fixed;pointerEvents=1;shape=mxgraph.aws4.iot_thing_vibration_sensor;" parent="1" vertex="1">
          <mxGeometry x="401" y="10" width="59" height="59" as="geometry" />
        </mxCell>
        <mxCell id="F8SU_T_gVYSJqYBRNQ0F-46" value="" style="ellipse;shape=cloud;whiteSpace=wrap;html=1;" parent="1" vertex="1">
          <mxGeometry x="355.66999999999996" y="90" width="324.83" height="200" as="geometry" />
        </mxCell>
        <mxCell id="F8SU_T_gVYSJqYBRNQ0F-45" value="" style="shape=image;verticalLabelPosition=bottom;labelBackgroundColor=default;verticalAlign=top;aspect=fixed;imageAspect=0;image=https://alfaiot.com/wp-content/uploads/2022/11/LoRaWAN_Logo.svg_.png;" parent="1" vertex="1">
          <mxGeometry x="470.5" y="130" width="134.54" height="43.5" as="geometry" />
        </mxCell>
        <mxCell id="F8SU_T_gVYSJqYBRNQ0F-48" value="" style="sketch=0;outlineConnect=0;fontColor=#232F3E;gradientColor=none;fillColor=#7AA116;strokeColor=none;dashed=0;verticalLabelPosition=bottom;verticalAlign=top;align=center;html=1;fontSize=12;fontStyle=0;aspect=fixed;pointerEvents=1;shape=mxgraph.aws4.iot_device_gateway;" parent="1" vertex="1">
          <mxGeometry x="490.5" y="173.5" width="78" height="73" as="geometry" />
        </mxCell>
        <mxCell id="F8SU_T_gVYSJqYBRNQ0F-50" value="" style="whiteSpace=wrap;html=1;aspect=fixed;" parent="1" vertex="1">
          <mxGeometry x="275.5" y="160.5" width="80" height="80" as="geometry" />
        </mxCell>
        <mxCell id="F8SU_T_gVYSJqYBRNQ0F-51" value="" style="sketch=0;outlineConnect=0;fontColor=#232F3E;gradientColor=none;fillColor=#7AA116;strokeColor=none;dashed=0;verticalLabelPosition=bottom;verticalAlign=top;align=center;html=1;fontSize=12;fontStyle=0;aspect=fixed;pointerEvents=1;shape=mxgraph.aws4.iot_thing_vibration_sensor;" parent="1" vertex="1">
          <mxGeometry x="286" y="170.5" width="59" height="59" as="geometry" />
        </mxCell>
        <mxCell id="F8SU_T_gVYSJqYBRNQ0F-52" value="" style="whiteSpace=wrap;html=1;aspect=fixed;" parent="1" vertex="1">
          <mxGeometry x="390.5" y="310" width="80" height="80" as="geometry" />
        </mxCell>
        <mxCell id="F8SU_T_gVYSJqYBRNQ0F-53" value="" style="sketch=0;outlineConnect=0;fontColor=#232F3E;gradientColor=none;fillColor=#7AA116;strokeColor=none;dashed=0;verticalLabelPosition=bottom;verticalAlign=top;align=center;html=1;fontSize=12;fontStyle=0;aspect=fixed;pointerEvents=1;shape=mxgraph.aws4.iot_thing_vibration_sensor;" parent="1" vertex="1">
          <mxGeometry x="401" y="320" width="59" height="59" as="geometry" />
        </mxCell>
        <mxCell id="F8SU_T_gVYSJqYBRNQ0F-59" style="rounded=0;orthogonalLoop=1;jettySize=auto;html=1;startArrow=none;startFill=0;endArrow=open;endFill=0;strokeWidth=2;strokeColor=#808080;exitX=0.875;exitY=0.5;exitDx=0;exitDy=0;exitPerimeter=0;edgeStyle=orthogonalEdgeStyle;" parent="1" source="F8SU_T_gVYSJqYBRNQ0F-46" edge="1" target="F8SU_T_gVYSJqYBRNQ0F-66">
          <mxGeometry relative="1" as="geometry">
            <mxPoint x="553" y="-375.5" as="sourcePoint" />
            <mxPoint x="720" y="110" as="targetPoint" />
            <Array as="points">
              <mxPoint x="700" y="190" />
              <mxPoint x="700" y="117" />
            </Array>
          </mxGeometry>
        </mxCell>
        <mxCell id="F8SU_T_gVYSJqYBRNQ0F-60" style="rounded=0;orthogonalLoop=1;jettySize=auto;html=1;startArrow=open;startFill=0;endArrow=open;endFill=0;strokeWidth=2;strokeColor=#808080;exitX=1;exitY=0.5;exitDx=0;exitDy=0;entryX=0.55;entryY=0.95;entryDx=0;entryDy=0;entryPerimeter=0;edgeStyle=orthogonalEdgeStyle;" parent="1" source="F8SU_T_gVYSJqYBRNQ0F-52" target="F8SU_T_gVYSJqYBRNQ0F-46" edge="1">
          <mxGeometry relative="1" as="geometry">
            <mxPoint x="649.5" y="200.5" as="sourcePoint" />
            <mxPoint x="941.5" y="200.5" as="targetPoint" />
          </mxGeometry>
        </mxCell>
        <mxCell id="F8SU_T_gVYSJqYBRNQ0F-61" style="rounded=0;orthogonalLoop=1;jettySize=auto;html=1;startArrow=open;startFill=0;endArrow=open;endFill=0;strokeWidth=2;strokeColor=#808080;exitX=1;exitY=0.5;exitDx=0;exitDy=0;entryX=0.16;entryY=0.55;entryDx=0;entryDy=0;entryPerimeter=0;" parent="1" source="F8SU_T_gVYSJqYBRNQ0F-50" target="F8SU_T_gVYSJqYBRNQ0F-46" edge="1">
          <mxGeometry relative="1" as="geometry">
            <mxPoint x="370.5" y="330.5" as="sourcePoint" />
            <mxPoint x="466.5" y="260.5" as="targetPoint" />
          </mxGeometry>
        </mxCell>
        <mxCell id="F8SU_T_gVYSJqYBRNQ0F-62" style="rounded=0;orthogonalLoop=1;jettySize=auto;html=1;startArrow=open;startFill=0;endArrow=open;endFill=0;strokeWidth=2;strokeColor=#808080;exitX=1;exitY=0.5;exitDx=0;exitDy=0;entryX=0.594;entryY=0.145;entryDx=0;entryDy=0;entryPerimeter=0;edgeStyle=orthogonalEdgeStyle;" parent="1" source="F8SU_T_gVYSJqYBRNQ0F-43" target="F8SU_T_gVYSJqYBRNQ0F-46" edge="1">
          <mxGeometry relative="1" as="geometry">
            <mxPoint x="380.5" y="340.5" as="sourcePoint" />
            <mxPoint x="476.5" y="270.5" as="targetPoint" />
            <Array as="points">
              <mxPoint x="548.5" y="40" />
            </Array>
          </mxGeometry>
        </mxCell>
        <mxCell id="F8SU_T_gVYSJqYBRNQ0F-65" value="" style="shape=image;verticalLabelPosition=bottom;labelBackgroundColor=default;verticalAlign=top;aspect=fixed;imageAspect=0;image=https://cdn-icons-png.flaticon.com/512/215/215628.png;" parent="1" vertex="1">
          <mxGeometry x="864" y="118.5" width="122" height="122" as="geometry" />
        </mxCell>
        <mxCell id="F8SU_T_gVYSJqYBRNQ0F-66" value="" style="outlineConnect=0;fontColor=#232F3E;gradientColor=#945DF2;gradientDirection=north;fillColor=#5A30B5;strokeColor=#ffffff;dashed=0;verticalLabelPosition=bottom;verticalAlign=top;align=center;html=1;fontSize=12;fontStyle=0;aspect=fixed;shape=mxgraph.aws4.resourceIcon;resIcon=mxgraph.aws4.glue;labelBackgroundColor=#ffffff;rotation=-90;" parent="1" vertex="1">
          <mxGeometry x="730.0000000000002" y="77.5" width="78" height="78" as="geometry" />
        </mxCell>
        <mxCell id="F8SU_T_gVYSJqYBRNQ0F-67" value="Data Aggregation" style="text;html=1;align=center;verticalAlign=middle;whiteSpace=wrap;rounded=0;" parent="1" vertex="1">
          <mxGeometry x="739" y="158" width="60" height="30" as="geometry" />
        </mxCell>
        <mxCell id="F8SU_T_gVYSJqYBRNQ0F-68" style="rounded=0;orthogonalLoop=1;jettySize=auto;html=1;startArrow=none;startFill=0;endArrow=open;endFill=0;strokeWidth=2;strokeColor=#808080;entryX=0;entryY=0.5;entryDx=0;entryDy=0;edgeStyle=orthogonalEdgeStyle;" parent="1" source="F8SU_T_gVYSJqYBRNQ0F-66" target="F8SU_T_gVYSJqYBRNQ0F-65" edge="1">
          <mxGeometry relative="1" as="geometry">
            <mxPoint x="855" y="-23.5" as="sourcePoint" />
            <mxPoint x="636" y="124.25" as="targetPoint" />
          </mxGeometry>
        </mxCell>
        <mxCell id="F8SU_T_gVYSJqYBRNQ0F-69" value="Decision System / Rule Engine" style="text;html=1;align=center;verticalAlign=middle;whiteSpace=wrap;rounded=0;" parent="1" vertex="1">
          <mxGeometry x="870" y="240.5" width="110" height="30" as="geometry" />
        </mxCell>
        <mxCell id="F8SU_T_gVYSJqYBRNQ0F-73" value="" style="verticalLabelPosition=bottom;html=1;verticalAlign=top;align=center;strokeColor=none;fillColor=#00BEF2;shape=mxgraph.azure.azure_alert;" parent="1" vertex="1">
          <mxGeometry x="1110" y="102" width="70" height="58.5" as="geometry" />
        </mxCell>
        <mxCell id="F8SU_T_gVYSJqYBRNQ0F-74" style="rounded=0;orthogonalLoop=1;jettySize=auto;html=1;startArrow=none;startFill=0;endArrow=open;endFill=0;strokeWidth=2;strokeColor=#808080;entryX=0.2;entryY=0.5;entryDx=0;entryDy=0;edgeStyle=orthogonalEdgeStyle;exitX=1;exitY=0.5;exitDx=0;exitDy=0;entryPerimeter=0;" parent="1" source="F8SU_T_gVYSJqYBRNQ0F-65" target="F8SU_T_gVYSJqYBRNQ0F-73" edge="1">
          <mxGeometry relative="1" as="geometry">
            <mxPoint x="714" y="123.5" as="sourcePoint" />
            <mxPoint x="874" y="189.5" as="targetPoint" />
          </mxGeometry>
        </mxCell>
        <mxCell id="F8SU_T_gVYSJqYBRNQ0F-76" value="Persistent Logs Storage" style="outlineConnect=0;fontColor=#232F3E;gradientColor=#4D72F3;gradientDirection=north;fillColor=#3334B9;strokeColor=#ffffff;dashed=0;verticalLabelPosition=bottom;verticalAlign=top;align=center;html=1;fontSize=12;fontStyle=0;aspect=fixed;shape=mxgraph.aws4.resourceIcon;resIcon=mxgraph.aws4.dynamodb;labelBackgroundColor=#ffffff;spacingTop=5;" parent="1" vertex="1">
          <mxGeometry x="886.0000000000002" y="379" width="78" height="78" as="geometry" />
        </mxCell>
        <mxCell id="F8SU_T_gVYSJqYBRNQ0F-77" style="rounded=0;orthogonalLoop=1;jettySize=auto;html=1;startArrow=open;startFill=0;endArrow=open;endFill=0;strokeWidth=2;strokeColor=#808080;exitX=0.5;exitY=1;exitDx=0;exitDy=0;" parent="1" source="F8SU_T_gVYSJqYBRNQ0F-69" target="F8SU_T_gVYSJqYBRNQ0F-76" edge="1">
          <mxGeometry relative="1" as="geometry">
            <mxPoint x="235" y="70.5" as="sourcePoint" />
            <mxPoint x="350" y="120.5" as="targetPoint" />
          </mxGeometry>
        </mxCell>
        <mxCell id="F8SU_T_gVYSJqYBRNQ0F-78" value="User-Applications&lt;br&gt;&amp;nbsp;Interface" style="sketch=0;points=[[0,0,0],[0.25,0,0],[0.5,0,0],[0.75,0,0],[1,0,0],[0,1,0],[0.25,1,0],[0.5,1,0],[0.75,1,0],[1,1,0],[0,0.25,0],[0,0.5,0],[0,0.75,0],[1,0.25,0],[1,0.5,0],[1,0.75,0]];outlineConnect=0;fontColor=#232F3E;fillColor=#8C4FFF;strokeColor=#ffffff;dashed=0;verticalLabelPosition=bottom;verticalAlign=top;align=center;html=1;fontSize=12;fontStyle=0;aspect=fixed;shape=mxgraph.aws4.resourceIcon;resIcon=mxgraph.aws4.api_gateway;" parent="1" vertex="1">
          <mxGeometry x="1106" y="242" width="78" height="78" as="geometry" />
        </mxCell>
        <mxCell id="F8SU_T_gVYSJqYBRNQ0F-79" value="" style="image;sketch=0;aspect=fixed;html=1;points=[];align=center;fontSize=12;image=img/lib/mscae/App_Service_Mobile_App.svg;" parent="1" vertex="1">
          <mxGeometry x="1240" y="207.47" width="100" height="147.06" as="geometry" />
        </mxCell>
        <mxCell id="F8SU_T_gVYSJqYBRNQ0F-80" style="rounded=0;orthogonalLoop=1;jettySize=auto;html=1;startArrow=open;startFill=0;endArrow=open;endFill=0;strokeWidth=2;strokeColor=#808080;exitX=1;exitY=0.5;exitDx=0;exitDy=0;exitPerimeter=0;entryX=-0.038;entryY=0.505;entryDx=0;entryDy=0;entryPerimeter=0;" parent="1" source="F8SU_T_gVYSJqYBRNQ0F-78" target="F8SU_T_gVYSJqYBRNQ0F-79" edge="1">
          <mxGeometry relative="1" as="geometry">
            <mxPoint x="935" y="280.5" as="sourcePoint" />
            <mxPoint x="935" y="406.5" as="targetPoint" />
          </mxGeometry>
        </mxCell>
        <mxCell id="F8SU_T_gVYSJqYBRNQ0F-81" style="rounded=0;orthogonalLoop=1;jettySize=auto;html=1;startArrow=open;startFill=0;endArrow=none;endFill=0;strokeWidth=2;strokeColor=#808080;exitX=0;exitY=0.5;exitDx=0;exitDy=0;exitPerimeter=0;entryX=1;entryY=0.75;entryDx=0;entryDy=0;edgeStyle=orthogonalEdgeStyle;" parent="1" source="F8SU_T_gVYSJqYBRNQ0F-78" target="F8SU_T_gVYSJqYBRNQ0F-65" edge="1">
          <mxGeometry relative="1" as="geometry">
            <mxPoint x="1199" y="289.5" as="sourcePoint" />
            <mxPoint x="1310" y="290.5" as="targetPoint" />
          </mxGeometry>
        </mxCell>
        <mxCell id="F8SU_T_gVYSJqYBRNQ0F-82" value="Network Command &lt;br&gt;Module" style="outlineConnect=0;fontColor=#232F3E;gradientColor=#F78E04;gradientDirection=north;fillColor=#D05C17;strokeColor=#ffffff;dashed=0;verticalLabelPosition=bottom;verticalAlign=top;align=center;html=1;fontSize=12;fontStyle=0;aspect=fixed;shape=mxgraph.aws4.resourceIcon;resIcon=mxgraph.aws4.lambda;labelBackgroundColor=#ffffff;spacingTop=3;" parent="1" vertex="1">
          <mxGeometry x="730" y="212" width="78" height="78" as="geometry" />
        </mxCell>
        <mxCell id="F8SU_T_gVYSJqYBRNQ0F-83" style="rounded=0;orthogonalLoop=1;jettySize=auto;html=1;startArrow=open;startFill=0;endArrow=open;endFill=0;strokeWidth=2;strokeColor=#808080;exitX=0.5;exitY=0;exitDx=0;exitDy=0;exitPerimeter=0;" parent="1" source="F8SU_T_gVYSJqYBRNQ0F-78" target="F8SU_T_gVYSJqYBRNQ0F-73" edge="1">
          <mxGeometry relative="1" as="geometry">
            <mxPoint x="1253" y="289.5" as="sourcePoint" />
            <mxPoint x="1310" y="290.5" as="targetPoint" />
          </mxGeometry>
        </mxCell>
        <mxCell id="F8SU_T_gVYSJqYBRNQ0F-84" value="Alert System" style="text;html=1;align=center;verticalAlign=middle;whiteSpace=wrap;rounded=0;" parent="1" vertex="1">
          <mxGeometry x="1090" y="77.5" width="110" height="30" as="geometry" />
        </mxCell>
        <mxCell id="F8SU_T_gVYSJqYBRNQ0F-85" style="rounded=0;orthogonalLoop=1;jettySize=auto;html=1;startArrow=open;startFill=0;endArrow=none;endFill=0;strokeWidth=2;strokeColor=#808080;edgeStyle=orthogonalEdgeStyle;entryX=0;entryY=0.75;entryDx=0;entryDy=0;entryPerimeter=0;" parent="1" source="F8SU_T_gVYSJqYBRNQ0F-82" target="F8SU_T_gVYSJqYBRNQ0F-78" edge="1">
          <mxGeometry relative="1" as="geometry">
            <mxPoint x="1175" y="289.5" as="sourcePoint" />
            <mxPoint x="1165" y="276.5" as="targetPoint" />
            <Array as="points">
              <mxPoint x="840" y="251" />
              <mxPoint x="840" y="299" />
            </Array>
          </mxGeometry>
        </mxCell>
        <mxCell id="F8SU_T_gVYSJqYBRNQ0F-86" style="rounded=0;orthogonalLoop=1;jettySize=auto;html=1;startArrow=none;startFill=0;endArrow=open;endFill=0;strokeWidth=2;strokeColor=#808080;entryX=0.96;entryY=0.7;entryDx=0;entryDy=0;edgeStyle=orthogonalEdgeStyle;entryPerimeter=0;" parent="1" source="F8SU_T_gVYSJqYBRNQ0F-82" target="F8SU_T_gVYSJqYBRNQ0F-46" edge="1">
          <mxGeometry relative="1" as="geometry">
            <mxPoint x="504" y="200.5" as="sourcePoint" />
            <mxPoint x="636" y="124.25" as="targetPoint" />
            <Array as="points">
              <mxPoint x="700" y="256" />
              <mxPoint x="700" y="230" />
            </Array>
          </mxGeometry>
        </mxCell>
        <mxCell id="F8SU_T_gVYSJqYBRNQ0F-87" value="Sensing Node" style="text;html=1;align=center;verticalAlign=middle;whiteSpace=wrap;rounded=0;" parent="1" vertex="1">
          <mxGeometry x="365.5" y="396.5" width="130" height="30" as="geometry" />
        </mxCell>
        <mxCell id="F8SU_T_gVYSJqYBRNQ0F-88" value="Sensing Node" style="text;html=1;align=center;verticalAlign=middle;whiteSpace=wrap;rounded=0;" parent="1" vertex="1">
          <mxGeometry x="250" y="240.5" width="130" height="30" as="geometry" />
        </mxCell>
        <mxCell id="F8SU_T_gVYSJqYBRNQ0F-89" value="Sensing Node" style="text;html=1;align=center;verticalAlign=middle;whiteSpace=wrap;rounded=0;" parent="1" vertex="1">
          <mxGeometry x="365.5" y="80" width="130" height="30" as="geometry" />
        </mxCell>
        <mxCell id="F8SU_T_gVYSJqYBRNQ0F-90" value="End-User Devices" style="text;html=1;align=center;verticalAlign=middle;whiteSpace=wrap;rounded=0;" parent="1" vertex="1">
          <mxGeometry x="1250.5" y="374.53" width="99" height="30" as="geometry" />
        </mxCell>
        <mxCell id="PeOmT4JTssvLrRrZyRl_-36" value="" style="image;sketch=0;aspect=fixed;html=1;points=[];align=center;fontSize=12;image=img/lib/mscae/App_Service_Mobile_App.svg;" vertex="1" parent="1">
          <mxGeometry x="1250" y="217.47" width="100" height="147.06" as="geometry" />
        </mxCell>
        <mxCell id="PeOmT4JTssvLrRrZyRl_-37" value="" style="image;sketch=0;aspect=fixed;html=1;points=[];align=center;fontSize=12;image=img/lib/mscae/App_Service_Mobile_App.svg;" vertex="1" parent="1">
          <mxGeometry x="1260" y="227.47" width="100" height="147.06" as="geometry" />
        </mxCell>
      </root>
    </mxGraphModel>
  </diagram>
</mxfile>
